<?xml version="1.0" encoding="utf-8"?>
<!-- Generator: Adobe Illustrator 21.1.0, SVG Export Plug-In . SVG Version: 6.00 Build 0)  -->
<svg version="1.1" id="Layer_1" xmlns="http://www.w3.org/2000/svg" xmlns:xlink="http://www.w3.org/1999/xlink" x="0px" y="0px"
	 viewBox="0 0 40 40" style="enable-background:new 0 0 40 40;" xml:space="preserve">
<style type="text/css">
	.st0{fill:#D41F28;}
	.st1{fill:#FFFFFF;stroke:#FFFFFF;stroke-width:0.5;stroke-linecap:square;stroke-linejoin:round;stroke-miterlimit:10;}
</style>
<circle class="st0" cx="20" cy="20" r="20"/>
<g>
	<path id="path4463" class="st1" d="M15.6,22c0.8-1.5,1.6-3.2,2.3-4.9l0,0l0.3-0.7c-0.9-3.4-1.4-6.2-1-8l0,0
		c0.1-0.5,0.7-0.7,1.2-0.7l0,0l0.4,0h0.1c0.8,0,1.2,1,1.2,1.4l0,0c0.1,0.7-0.2,1.8-0.2,1.8l0,0c0-0.4,0-1.2-0.3-1.8l0,0
		C19.3,8.4,19,8,18.7,7.9l0,0c-0.1,0.1-0.3,0.3-0.3,0.7l0,0c-0.1,0.5-0.1,1.2-0.1,1.5l0,0c0,1.2,0.2,2.8,0.7,4.5l0,0
		c0.1-0.3,0.2-0.5,0.2-0.7l0,0c0.1-0.4,0.7-2.8,0.7-2.8l0,0c0,0-0.2,3.2-0.4,4.2l0,0c0,0.2-0.1,0.4-0.1,0.6l0,0
		c0.8,2.2,2,4.1,3.5,5.5l0,0c0.6,0.5,1.3,1,2,1.4l0,0c1.5-0.2,2.9-0.3,4.1-0.3l0,0c1.6,0,2.7,0.3,3.2,0.7l0,0
		c0.2,0.2,0.3,0.5,0.3,0.8l0,0c0,0.1-0.1,0.4-0.1,0.5l0,0c0-0.1,0-0.5-1.2-0.9l0,0c-1-0.3-2.8-0.3-5-0.1l0,0c2.6,1.3,5,1.9,5.8,1.5
		l0,0c0.2-0.1,0.4-0.4,0.4-0.4l0,0c0,0-0.1,0.6-0.2,0.8l0,0c-0.1,0.2-0.4,0.4-0.6,0.4l0,0c-1.2,0.3-4.5-0.4-7.3-2.1l0,0
		c-3.2,0.5-6.6,1.3-9.4,2.2l0,0c-2.7,4.8-4.8,7-6.5,6.2l0,0l-0.6-0.3c-0.2-0.1-0.3-0.5-0.2-0.8l0,0c0.2-1,1.4-2.4,3.8-3.8l0,0
		c0.3-0.2,1.4-0.8,1.4-0.8l0,0c0,0-0.9,0.8-1.1,1l0,0c-1.9,1.6-3.3,3.5-3.3,4.3l0,0l0,0.1C10,31.5,12.5,28.2,15.6,22 M16.6,22.6
		c-0.5,1-1,1.9-1.5,2.7l0,0c2.6-1.1,5.4-1.8,8.1-2.3l0,0c-0.4-0.2-0.7-0.5-1-0.8l0,0c-1.5-1.3-2.6-2.8-3.4-4.5l0,0
		C18.2,19.1,17.6,20.6,16.6,22.6"/>
</g>
</svg>
